<svg xmlns="http://www.w3.org/2000/svg" width="18.017" height="18.081" viewBox="0 0 18.017 18.081"><defs><style>.a{fill:#2e384d;stroke:#2e384d;stroke-width:0.7px;}</style></defs><g transform="translate(17.604 0.413) rotate(90)"><g transform="translate(10.573)"><path class="a" d="M319.741,0h-5.287a.7.7,0,0,0,0,1.394h4.59v4.59a.7.7,0,1,0,1.394,0V.7A.7.7,0,0,0,319.741,0Z" transform="translate(-313.757)"/></g><g transform="translate(0 10.573)"><path class="a" d="M5.984,319.044H1.394v-4.59a.7.7,0,0,0-1.394,0v5.287a.7.7,0,0,0,.7.7H5.984a.7.7,0,1,0,0-1.394Z" transform="translate(0 -313.757)"/></g><g transform="translate(9.692 0)"><path class="a" d="M294.97.2a.7.7,0,0,0-.986,0l-6.168,6.168a.7.7,0,0,0,.986.986L294.97,1.19A.7.7,0,0,0,294.97.2Z" transform="translate(-287.612 0)"/></g><g transform="translate(0 9.692)"><path class="a" d="M7.358,287.815a.7.7,0,0,0-.986,0L.2,293.983a.7.7,0,0,0,.986.986L7.358,288.8A.7.7,0,0,0,7.358,287.815Z" transform="translate(0 -287.611)"/></g></g></svg>